<?xml version="1.0" encoding="UTF-8"?>
<!-- Generator: visioncortex VTracer 0.6.4 -->
<svg version="1.1" xmlns="http://www.w3.org/2000/svg" width="256" height="256">
<path d="M0 0 C0.83442627 -0.00525696 1.66885254 -0.01051392 2.52856445 -0.01593018 C5.29006605 -0.02914689 8.05099242 -0.02038627 10.8125 -0.01025391 C12.72916779 -0.01227416 14.64583484 -0.0151852 16.5625 -0.01895142 C20.58080356 -0.02337703 24.59890716 -0.01693606 28.6171875 -0.00292969 C33.77246008 0.01416231 38.92726414 0.0043224 44.08251953 -0.01364708 C48.04072613 -0.02447849 51.99882133 -0.02104153 55.95703125 -0.0132637 C57.85807348 -0.01125992 59.75912576 -0.01372721 61.66015625 -0.02070236 C64.3153774 -0.02830628 66.96983578 -0.01672777 69.625 0 C70.41366455 -0.00607269 71.2023291 -0.01214539 72.01489258 -0.0184021 C77.28488229 0.04322491 77.28488229 0.04322491 79.79995728 1.68759155 C81.58455243 4.68486589 81.23792649 8.06161879 81.2109375 11.45068359 C81.21380768 12.23838135 81.21667786 13.0260791 81.21963501 13.83764648 C81.22167522 15.50196044 81.21614832 17.1662984 81.20361328 18.83056641 C81.18755809 21.37896306 81.20346244 23.9257738 81.22265625 26.47412109 C81.22067381 28.0913121 81.21683011 29.70850211 81.2109375 31.32568359 C81.21701019 32.08824463 81.22308289 32.85080566 81.2293396 33.63647461 C81.19016205 36.58142458 81.14695597 38.83538163 79.60009766 41.39208984 C77.24248094 42.70581235 75.46710658 42.60342196 72.8125 42.38818359 C72.53990926 47.12350991 72.7663029 50.93462278 75.59570312 54.86572266 C78.0025102 57.35548776 80.48650703 59.6989631 83.0625 62.01318359 C99.12476485 76.84729926 99.12476485 76.84729926 100.07535553 88.65254879 C100.08427952 90.43364213 100.08427952 90.43364213 100.09338379 92.25071716 C100.09932603 92.91652379 100.10526828 93.58233041 100.11139059 94.26831299 C100.12865102 96.48597474 100.1317712 98.70341914 100.13476562 100.92114258 C100.14402977 102.5165655 100.15408014 104.11198403 100.16485596 105.70739746 C100.19102614 110.03175282 100.20397759 114.3560462 100.21287727 118.68046832 C100.21874904 121.38383547 100.2269604 124.08718584 100.23588562 126.79054451 C100.26320994 135.25395673 100.28255789 143.71733042 100.2902894 152.18078369 C100.2992564 161.94189427 100.33438874 171.7024455 100.39229059 181.463386 C100.43553456 189.01600711 100.45569834 196.56847086 100.45837164 204.12121445 C100.46046628 208.62920519 100.47224965 213.13666921 100.50801086 217.64452934 C100.54099348 221.88421768 100.54527497 226.12298383 100.52773285 230.36275482 C100.52619335 231.91596257 100.53486195 233.46922016 100.55464935 235.02230263 C100.71276241 248.20846691 100.71276241 248.20846691 96.89294434 252.80458069 C93.74175315 255.77359083 91.59631374 256.51316211 87.29121399 256.54881287 C86.33936722 256.55885849 85.38752045 256.56890411 84.40682983 256.57925415 C83.35903351 256.58508514 82.31123718 256.59091614 81.23168945 256.59692383 C80.13073441 256.60670761 79.02977936 256.61649139 77.89546204 256.62657166 C74.23891416 256.65657358 70.58240301 256.67792523 66.92578125 256.69677734 C65.05506989 256.70663508 65.05506989 256.70663508 63.14656639 256.71669197 C57.90427655 256.74258976 52.66199215 256.76607833 47.41965961 256.78118801 C39.91340259 256.80307766 32.40786246 256.84500712 24.90189201 256.91462559 C18.98379269 256.9676461 13.06585109 256.98767918 7.14751244 256.99638557 C4.63289011 257.00495216 2.11828095 257.0237995 -0.39618492 257.0531292 C-3.91792986 257.09199384 -7.4378087 257.09308364 -10.9597168 257.08520508 C-11.99739197 257.10520569 -13.03506714 257.1252063 -14.10418701 257.14581299 C-20.20632493 257.0845788 -23.55064844 256.19714241 -27.9533205 251.87149143 C-30.6099056 248.67865481 -30.32002446 246.09571447 -30.33467102 242.02685547 C-30.33834771 241.36658324 -30.3420244 240.70631102 -30.3458125 240.02603054 C-30.35686717 237.80299045 -30.36069626 235.57999708 -30.36450195 233.35693359 C-30.37076553 231.76697134 -30.37741224 230.17701056 -30.38441467 228.58705139 C-30.40547951 223.35410587 -30.415823 218.12115999 -30.42578125 212.88818359 C-30.42982866 211.08617131 -30.43394557 209.28415918 -30.43813133 207.48214722 C-30.45719257 199.01177597 -30.4714186 190.54141347 -30.4797433 182.07102489 C-30.48950341 172.3015549 -30.51578687 162.53231223 -30.55624419 152.76292229 C-30.58645102 145.20864613 -30.60121672 137.65443492 -30.60452431 130.10009956 C-30.60687067 125.59039356 -30.61577617 121.08093013 -30.64098549 116.57128906 C-30.66434958 112.32277799 -30.66846616 108.07466772 -30.65822411 103.82610893 C-30.65773056 102.27256369 -30.66399712 100.71899817 -30.67778015 99.16551399 C-30.77624332 87.40268575 -29.56092878 78.11024524 -21.125 69.45068359 C-20.65400879 68.9532666 -20.18301758 68.45584961 -19.69775391 67.94335938 C-17.23885704 65.37051165 -14.69788754 62.91954727 -12.05859375 60.53271484 C-5.55817787 54.75988683 -5.55817787 54.75988683 -3 46.70068359 C-2.98299576 44.30436409 -2.98299576 44.30436409 -3.1875 42.38818359 C-3.950625 42.45005859 -4.71375 42.51193359 -5.5 42.57568359 C-8.1875 42.38818359 -8.1875 42.38818359 -9.83056641 41.38037109 C-11.95421523 38.26252755 -11.61495407 34.96935607 -11.5859375 31.32568359 C-11.58880768 30.53798584 -11.59167786 29.75028809 -11.59463501 28.9387207 C-11.59667522 27.27440674 -11.59114832 25.61006879 -11.57861328 23.94580078 C-11.56255809 21.39740413 -11.57846244 18.85059339 -11.59765625 16.30224609 C-11.59567381 14.68505509 -11.59183011 13.06786508 -11.5859375 11.45068359 C-11.59504654 10.30684204 -11.59504654 10.30684204 -11.6043396 9.13989258 C-11.53560059 3.97282766 -11.53560059 3.97282766 -10.17495728 1.68759155 C-7.01364106 -0.37929034 -3.65512947 -0.02814438 0 0 Z " fill="#040506" transform="translate(93.1875,-0.38818359375)"/>
<path d="M0 0 C2.3125 -0.3984375 2.3125 -0.3984375 5 -0.375 C6.3303125 -0.38660156 6.3303125 -0.38660156 7.6875 -0.3984375 C8.8321875 -0.20121094 8.8321875 -0.20121094 10 0 C10.99 1.485 10.99 1.485 12 3 C14.05925139 3.72382467 14.05925139 3.72382467 16 4 C16.05607422 5.08667969 16.05607422 5.08667969 16.11328125 6.1953125 C16.17902344 7.16210938 16.24476563 8.12890625 16.3125 9.125 C16.37050781 10.07632813 16.42851562 11.02765625 16.48828125 12.0078125 C18.08093057 21.32055583 25.49618496 26.64952592 32.04101562 32.8359375 C36.95102441 37.58977068 40.53314072 41.58204298 43 48 C43 49.32 43 50.64 43 52 C16.27 52.33 -10.46 52.66 -38 53 C-38.33 54.65 -38.66 56.3 -39 58 C-35.7470597 59.08431343 -33.30033539 59.15748034 -29.8762207 59.20532227 C-27.98459953 59.2352401 -27.98459953 59.2352401 -26.05476379 59.26576233 C-24.67843753 59.28274533 -23.30210998 59.29962419 -21.92578125 59.31640625 C-20.51758725 59.33698197 -19.10939935 59.3579786 -17.70121765 59.37937927 C-13.99739519 59.43453622 -10.29351759 59.48397354 -6.58959961 59.53222656 C-2.80903218 59.58248821 0.97145529 59.63814992 4.75195312 59.69335938 C12.16790102 59.80086292 19.58391545 59.90232514 27 60 C27.0505916 66.65686814 27.0856876 73.31368694 27.10986328 79.97070312 C27.11993859 82.23667249 27.13359918 84.50262881 27.15087891 86.76855469 C27.17506011 90.02021501 27.18646763 93.27170387 27.1953125 96.5234375 C27.20563507 97.54118256 27.21595764 98.55892761 27.22659302 99.60751343 C27.22674408 100.54833771 27.22689514 101.48916199 27.22705078 102.45849609 C27.231492 103.28900482 27.23593323 104.11951355 27.24050903 104.97518921 C27 107 27 107 25 109 C25 110.32 25 111.64 25 113 C25.66 113.33 26.32 113.66 27 114 C27.12808048 121.13074282 27.21488117 128.26118292 27.2746582 135.39282227 C27.2996103 137.81253137 27.33358439 140.23216662 27.37719727 142.65161133 C27.93628878 174.49351769 27.93628878 174.49351769 19.8293457 183.37915039 C18.92381958 184.18147095 18.92381958 184.18147095 18 185 C17.67 183.02 17.34 181.04 17 179 C15.02 179 13.04 179 11 179 C10.67 181.31 10.34 183.62 10 186 C2.14448094 187.96360021 -5.3639491 188.30409414 -13.4375 188.25 C-14.58798828 188.25773438 -15.73847656 188.26546875 -16.92382812 188.2734375 C-18.06142578 188.27085937 -19.19902344 188.26828125 -20.37109375 188.265625 C-21.38099365 188.26336914 -22.39089355 188.26111328 -23.43139648 188.25878906 C-28.33274905 187.9033513 -33.16504333 186.87908303 -38 186 C-38 178.41 -38 170.82 -38 163 C-35.36 163 -32.72 163 -30 163 C-27.4375 165.625 -27.4375 165.625 -26 169 C-26.1875 171.9375 -26.1875 171.9375 -27 175 C-27.33859959 177.33257494 -27.6732039 179.66574212 -28 182 C-25.07561246 181.35980881 -25.07561246 181.35980881 -22 180 C-21.5875 179.13375 -21.175 178.2675 -20.75 177.375 C-19 175 -19 175 -16.73828125 174.46484375 C-13.9742921 174.30747794 -11.69435301 174.35086545 -9 175 C-6.6875 177.9375 -6.6875 177.9375 -5 181 C-2.37233611 181.96219702 -2.37233611 181.96219702 0 182 C-0.70276708 176.92947304 -0.70276708 176.92947304 -1.8125 171.9375 C-2 169 -2 169 -0.5625 165.625 C2.14449262 162.85198317 2.50656312 162.57591015 6.125 162.4375 C7.40375 162.623125 8.6825 162.80875 10 163 C10.66 163.99 11.32 164.98 12 166 C13.65 165.67 15.3 165.34 17 165 C17 136.62 17 108.24 17 79 C9.40141757 76.46713919 2.56531004 75.84428455 -5.33984375 75.83203125 C-6.10623672 75.82870285 -6.8726297 75.82537445 -7.6622467 75.82194519 C-9.27148851 75.81691807 -10.88074059 75.81453555 -12.48999023 75.81469727 C-14.92774879 75.81250875 -17.36505544 75.79430259 -19.80273438 75.77539062 C-28.65070013 75.74358255 -36.53002867 76.17667622 -45 79 C-45.09339962 93.2903418 -45.16369177 107.58063634 -45.20724869 121.87122059 C-45.22815061 128.50645829 -45.25651627 135.1414914 -45.30175781 141.77661133 C-45.34512189 148.1762106 -45.36911746 154.5756127 -45.37950897 160.97534752 C-45.38691727 163.42068271 -45.40138332 165.86600674 -45.42292023 168.31125832 C-45.45182794 171.72833461 -45.45596119 175.14458929 -45.45410156 178.56176758 C-45.46848267 179.57956299 -45.48286377 180.5973584 -45.49768066 181.64599609 C-45.49218201 182.57567703 -45.48668335 183.50535797 -45.48101807 184.46321106 C-45.48470524 185.27162351 -45.48839241 186.08003595 -45.49219131 186.91294575 C-45.16468289 189.17387052 -45.16468289 189.17387052 -43.1139183 190.73816967 C-33.76444144 196.31901613 -19.27721404 194.22657334 -8.75 194.125 C-6.92578618 194.11494655 -5.10156698 194.1058249 -3.27734375 194.09765625 C1.14857279 194.07583828 5.57422547 194.04143984 10 194 C4.46201315 198.48429657 4.46201315 198.48429657 1.1875 200.125 C0.58292969 200.43695313 -0.02164063 200.74890625 -0.64453125 201.0703125 C-7.24532959 203.67560273 -13.30063322 204.28447441 -20.3125 204.1953125 C-21.16682617 204.1924826 -22.02115234 204.18965271 -22.90136719 204.18673706 C-25.60106053 204.17563879 -28.30040877 204.15055427 -31 204.125 C-32.84244309 204.11495679 -34.68489143 204.1058333 -36.52734375 204.09765625 C-41.01835994 204.0757335 -45.50912168 204.04127646 -50 204 C-50.99 201.525 -50.99 201.525 -52 199 C-53.32 199.33 -54.64 199.66 -56 200 C-56.495 201.98 -56.495 201.98 -57 204 C-61.62 204 -66.24 204 -71 204 C-71 156.15 -71 108.3 -71 59 C-61.1 58.505 -61.1 58.505 -51 58 C-50.67 56.68 -50.34 55.36 -50 54 C-51.58403524 52.41596476 -53.2771638 52.78025065 -55.47265625 52.68359375 C-56.82133789 52.62075195 -56.82133789 52.62075195 -58.19726562 52.55664062 C-59.14279297 52.51732422 -60.08832031 52.47800781 -61.0625 52.4375 C-62.01189453 52.39431641 -62.96128906 52.35113281 -63.93945312 52.30664062 C-66.29281353 52.20020724 -68.64628354 52.09818992 -71 52 C-70.53582115 40.85970758 -61.23462008 34.03658303 -53.65820312 26.82421875 C-46.31636161 19.68267206 -44.52371839 14.14930118 -44 4 C-42.73816895 3.98541748 -41.47633789 3.97083496 -40.17626953 3.95581055 C-35.50573021 3.89794671 -30.83567908 3.82071383 -26.16552734 3.73754883 C-24.14217029 3.70424321 -22.11871907 3.676229 -20.09521484 3.65356445 C-17.19067148 3.62012165 -14.28699558 3.56781231 -11.3828125 3.51171875 C-10.47443634 3.50532883 -9.56606018 3.4989389 -8.63015747 3.49235535 C-7.78943695 3.47256119 -6.94871643 3.45276703 -6.08251953 3.43237305 C-5.34083527 3.42126999 -4.599151 3.41016693 -3.83499146 3.39872742 C-1.58638164 3.13280747 -1.58638164 3.13280747 0 0 Z " fill="#607780" transform="translate(142,38)"/>
<path d="M0 0 C0.83442627 -0.00525696 1.66885254 -0.01051392 2.52856445 -0.01593018 C5.29006605 -0.02914689 8.05099242 -0.02038627 10.8125 -0.01025391 C12.72916779 -0.01227416 14.64583484 -0.0151852 16.5625 -0.01895142 C20.58080356 -0.02337703 24.59890716 -0.01693606 28.6171875 -0.00292969 C33.77246008 0.01416231 38.92726414 0.0043224 44.08251953 -0.01364708 C48.04072613 -0.02447849 51.99882133 -0.02104153 55.95703125 -0.0132637 C57.85807348 -0.01125992 59.75912576 -0.01372721 61.66015625 -0.02070236 C64.3153774 -0.02830628 66.96983578 -0.01672777 69.625 0 C70.41366455 -0.00607269 71.2023291 -0.01214539 72.01489258 -0.0184021 C77.28488229 0.04322491 77.28488229 0.04322491 79.79995728 1.68759155 C81.58455243 4.68486589 81.23792649 8.06161879 81.2109375 11.45068359 C81.21380768 12.23838135 81.21667786 13.0260791 81.21963501 13.83764648 C81.22167522 15.50196044 81.21614832 17.1662984 81.20361328 18.83056641 C81.18755809 21.37896306 81.20346244 23.9257738 81.22265625 26.47412109 C81.22067381 28.0913121 81.21683011 29.70850211 81.2109375 31.32568359 C81.21701019 32.08824463 81.22308289 32.85080566 81.2293396 33.63647461 C81.19016205 36.58142458 81.14695597 38.83538163 79.60009766 41.39208984 C77.24248094 42.70581235 75.46710658 42.60342196 72.8125 42.38818359 C72.53990926 47.12350991 72.7663029 50.93462278 75.59570312 54.86572266 C78.0025102 57.35548776 80.48650703 59.6989631 83.0625 62.01318359 C99.12476485 76.84729926 99.12476485 76.84729926 100.07535553 88.65254879 C100.08427952 90.43364213 100.08427952 90.43364213 100.09338379 92.25071716 C100.09932603 92.91652379 100.10526828 93.58233041 100.11139059 94.26831299 C100.12865102 96.48597474 100.1317712 98.70341914 100.13476562 100.92114258 C100.14402977 102.5165655 100.15408014 104.11198403 100.16485596 105.70739746 C100.19102614 110.03175282 100.20397759 114.3560462 100.21287727 118.68046832 C100.21874904 121.38383547 100.2269604 124.08718584 100.23588562 126.79054451 C100.26320994 135.25395673 100.28255789 143.71733042 100.2902894 152.18078369 C100.2992564 161.94189427 100.33438874 171.7024455 100.39229059 181.463386 C100.43553456 189.01600711 100.45569834 196.56847086 100.45837164 204.12121445 C100.46046628 208.62920519 100.47224965 213.13666921 100.50801086 217.64452934 C100.54099348 221.88421768 100.54527497 226.12298383 100.52773285 230.36275482 C100.52619335 231.91596257 100.53486195 233.46922016 100.55464935 235.02230263 C100.71276241 248.20846691 100.71276241 248.20846691 96.89294434 252.80458069 C93.74175315 255.77359083 91.59631374 256.51316211 87.29121399 256.54881287 C86.33936722 256.55885849 85.38752045 256.56890411 84.40682983 256.57925415 C83.35903351 256.58508514 82.31123718 256.59091614 81.23168945 256.59692383 C80.13073441 256.60670761 79.02977936 256.61649139 77.89546204 256.62657166 C74.23891416 256.65657358 70.58240301 256.67792523 66.92578125 256.69677734 C65.05506989 256.70663508 65.05506989 256.70663508 63.14656639 256.71669197 C57.90427655 256.74258976 52.66199215 256.76607833 47.41965961 256.78118801 C39.91340259 256.80307766 32.40786246 256.84500712 24.90189201 256.91462559 C18.98379269 256.9676461 13.06585109 256.98767918 7.14751244 256.99638557 C4.63289011 257.00495216 2.11828095 257.0237995 -0.39618492 257.0531292 C-3.91792986 257.09199384 -7.4378087 257.09308364 -10.9597168 257.08520508 C-11.99739197 257.10520569 -13.03506714 257.1252063 -14.10418701 257.14581299 C-20.20632493 257.0845788 -23.55064844 256.19714241 -27.9533205 251.87149143 C-30.6099056 248.67865481 -30.32002446 246.09571447 -30.33467102 242.02685547 C-30.33834771 241.36658324 -30.3420244 240.70631102 -30.3458125 240.02603054 C-30.35686717 237.80299045 -30.36069626 235.57999708 -30.36450195 233.35693359 C-30.37076553 231.76697134 -30.37741224 230.17701056 -30.38441467 228.58705139 C-30.40547951 223.35410587 -30.415823 218.12115999 -30.42578125 212.88818359 C-30.42982866 211.08617131 -30.43394557 209.28415918 -30.43813133 207.48214722 C-30.45719257 199.01177597 -30.4714186 190.54141347 -30.4797433 182.07102489 C-30.48950341 172.3015549 -30.51578687 162.53231223 -30.55624419 152.76292229 C-30.58645102 145.20864613 -30.60121672 137.65443492 -30.60452431 130.10009956 C-30.60687067 125.59039356 -30.61577617 121.08093013 -30.64098549 116.57128906 C-30.66434958 112.32277799 -30.66846616 108.07466772 -30.65822411 103.82610893 C-30.65773056 102.27256369 -30.66399712 100.71899817 -30.67778015 99.16551399 C-30.77624332 87.40268575 -29.56092878 78.11024524 -21.125 69.45068359 C-20.65400879 68.9532666 -20.18301758 68.45584961 -19.69775391 67.94335938 C-17.23885704 65.37051165 -14.69788754 62.91954727 -12.05859375 60.53271484 C-5.55817787 54.75988683 -5.55817787 54.75988683 -3 46.70068359 C-2.98299576 44.30436409 -2.98299576 44.30436409 -3.1875 42.38818359 C-3.950625 42.45005859 -4.71375 42.51193359 -5.5 42.57568359 C-8.1875 42.38818359 -8.1875 42.38818359 -9.83056641 41.38037109 C-11.95421523 38.26252755 -11.61495407 34.96935607 -11.5859375 31.32568359 C-11.58880768 30.53798584 -11.59167786 29.75028809 -11.59463501 28.9387207 C-11.59667522 27.27440674 -11.59114832 25.61006879 -11.57861328 23.94580078 C-11.56255809 21.39740413 -11.57846244 18.85059339 -11.59765625 16.30224609 C-11.59567381 14.68505509 -11.59183011 13.06786508 -11.5859375 11.45068359 C-11.59504654 10.30684204 -11.59504654 10.30684204 -11.6043396 9.13989258 C-11.53560059 3.97282766 -11.53560059 3.97282766 -10.17495728 1.68759155 C-7.01364106 -0.37929034 -3.65512947 -0.02814438 0 0 Z M48.8125 38.38818359 C48.1525 39.37818359 47.4925 40.36818359 46.8125 41.38818359 C44.97750854 41.78691101 44.97750854 41.78691101 42.72998047 41.82055664 C41.88925995 41.8403508 41.04853943 41.86014496 40.18234253 41.88053894 C39.27396637 41.88692886 38.36559021 41.89331879 37.4296875 41.89990234 C36.50028351 41.91785355 35.57087952 41.93580475 34.61331177 41.95429993 C31.63808767 42.00858208 28.66302557 42.04235579 25.6875 42.07568359 C23.67315444 42.10884088 21.65883032 42.14332904 19.64453125 42.17919922 C14.70063744 42.26431875 9.75679318 42.33104421 4.8125 42.38818359 C4.78671875 43.10103516 4.7609375 43.81388672 4.734375 44.54833984 C3.96289151 57.57589054 -2.52630631 63.05288219 -11.6328125 71.62841797 C-16.41473727 76.24857796 -19.75687559 80.15970854 -22.1875 86.38818359 C-22.1875 87.70818359 -22.1875 89.02818359 -22.1875 90.38818359 C-15.5875 90.71818359 -8.9875 91.04818359 -2.1875 91.38818359 C-1.8575 92.70818359 -1.5275 94.02818359 -1.1875 95.38818359 C-2.80530157 97.00598516 -4.64385518 96.61090507 -6.87890625 96.70458984 C-7.82314453 96.74648437 -8.76738281 96.78837891 -9.74023438 96.83154297 C-10.73345703 96.87085938 -11.72667969 96.91017578 -12.75 96.95068359 C-13.74708984 96.99386719 -14.74417969 97.03705078 -15.77148438 97.08154297 C-18.2433415 97.18798658 -20.7153031 97.29000287 -23.1875 97.38818359 C-23.3042865 116.4681797 -23.39246518 135.54810331 -23.44656086 154.62838268 C-23.47234576 163.48764682 -23.50750159 172.34668892 -23.56469727 181.20581055 C-23.61452367 188.9271741 -23.64678894 196.64837686 -23.65794247 204.36989671 C-23.6644626 208.45871117 -23.6797921 212.5470656 -23.71615028 216.63573265 C-23.7500981 220.48453738 -23.76055569 224.33269277 -23.75303841 228.181633 C-23.75441353 229.59378145 -23.76435411 231.0059517 -23.78352737 232.41797066 C-23.98691281 240.4062702 -23.98691281 240.4062702 -21.29168701 247.72859192 C-16.80390252 250.12789639 -12.97363193 250.07228779 -7.95288086 250.00341797 C-6.4106057 250.01174149 -6.4106057 250.01174149 -4.83717346 250.02023315 C-1.4417548 250.032035 1.95233112 250.00774901 5.34765625 249.98193359 C7.70747314 249.98022272 10.06729192 249.98028794 12.42710876 249.98205566 C17.37094318 249.98040215 22.3143243 249.96169618 27.25805664 249.93017578 C33.59919659 249.89047686 39.93974328 249.88613295 46.28098392 249.89363861 C51.15284167 249.89670594 56.0245657 249.8845965 60.89639091 249.86750793 C63.23479817 249.86047072 65.57322057 249.85735427 67.91163826 249.85820007 C71.17713013 249.85640517 74.44190694 249.83504949 77.70727539 249.80810547 C78.67621735 249.81103607 79.6451593 249.81396667 80.64346313 249.81698608 C81.97872292 249.7999614 81.97872292 249.7999614 83.34095764 249.78259277 C84.11245683 249.77886406 84.88395601 249.77513535 85.67883396 249.77129364 C88.52133576 249.26090871 89.82447759 248.49072667 91.8125 246.38818359 C92.40563721 243.60428584 92.40563721 243.60428584 92.29351807 240.37080383 C92.29901672 239.11297089 92.30451538 237.85513794 92.31018066 236.55918884 C92.29602405 235.16274645 92.28148481 233.76630789 92.26660156 232.36987305 C92.26547344 230.90146923 92.26610625 229.43306315 92.26837158 227.96466064 C92.26952107 223.97509914 92.2459743 219.98601694 92.21807575 215.99656701 C92.1931009 211.82856175 92.1907232 207.66054596 92.18597412 203.49247742 C92.17353278 195.59825203 92.14069562 187.70424775 92.10057616 179.81011981 C92.04754256 169.14380581 92.02592233 158.4774315 92.00256729 147.81101894 C91.96493493 131.00324149 91.88525206 114.19593066 91.8125 97.38818359 C64.7525 97.05818359 37.6925 96.72818359 9.8125 96.38818359 C10.1425 94.73818359 10.4725 93.08818359 10.8125 91.38818359 C50.9075 90.89318359 50.9075 90.89318359 91.8125 90.38818359 C90.12145645 78.55087875 82.10928099 72.47815417 73.73828125 64.47998047 C73.00480469 63.76519531 72.27132812 63.05041016 71.515625 62.31396484 C70.85208008 61.67885986 70.18853516 61.04375488 69.50488281 60.3894043 C66.22457019 56.51047721 65.54581879 52.53242687 65.1875 47.57568359 C65.07535156 46.11195312 65.07535156 46.11195312 64.9609375 44.61865234 C64.91195312 43.88259766 64.86296875 43.14654297 64.8125 42.38818359 C64.008125 42.09943359 63.20375 41.81068359 62.375 41.51318359 C59.8125 40.38818359 59.8125 40.38818359 58.8125 38.38818359 C57.18831255 38.30727389 55.56298255 38.24903364 53.9375 38.20068359 C53.03257812 38.16587891 52.12765625 38.13107422 51.1953125 38.09521484 C50.40898437 38.19189453 49.62265625 38.28857422 48.8125 38.38818359 Z " fill="#010101" transform="translate(93.1875,-0.38818359375)"/>
<path d="M0 0 C2.3125 -0.3984375 2.3125 -0.3984375 5 -0.375 C6.3303125 -0.38660156 6.3303125 -0.38660156 7.6875 -0.3984375 C8.8321875 -0.20121094 8.8321875 -0.20121094 10 0 C10.99 1.485 10.99 1.485 12 3 C14.05925139 3.72382467 14.05925139 3.72382467 16 4 C16.05607422 5.08667969 16.05607422 5.08667969 16.11328125 6.1953125 C16.17902344 7.16210938 16.24476563 8.12890625 16.3125 9.125 C16.37050781 10.07632813 16.42851562 11.02765625 16.48828125 12.0078125 C18.08093057 21.32055583 25.49618496 26.64952592 32.04101562 32.8359375 C36.95102441 37.58977068 40.53314072 41.58204298 43 48 C43 49.32 43 50.64 43 52 C16.27 52.33 -10.46 52.66 -38 53 C-38.495 53.99 -38.495 53.99 -39 55 C-40.62463842 55.05395478 -42.24978541 55.09277195 -43.875 55.125 C-45.23238281 55.15980469 -45.23238281 55.15980469 -46.6171875 55.1953125 C-49 55 -49 55 -51 53 C-53.12860662 52.63047951 -53.12860662 52.63047951 -55.5703125 52.5859375 C-56.46621094 52.54726562 -57.36210938 52.50859375 -58.28515625 52.46875 C-59.22230469 52.4378125 -60.15945312 52.406875 -61.125 52.375 C-62.06988281 52.33632812 -63.01476562 52.29765625 -63.98828125 52.2578125 C-66.32532375 52.16338654 -68.66235501 52.07781606 -71 52 C-70.53582115 40.85970758 -61.23462008 34.03658303 -53.65820312 26.82421875 C-46.31636161 19.68267206 -44.52371839 14.14930118 -44 4 C-42.73816895 3.98541748 -41.47633789 3.97083496 -40.17626953 3.95581055 C-35.50573021 3.89794671 -30.83567908 3.82071383 -26.16552734 3.73754883 C-24.14217029 3.70424321 -22.11871907 3.676229 -20.09521484 3.65356445 C-17.19067148 3.62012165 -14.28699558 3.56781231 -11.3828125 3.51171875 C-10.47443634 3.50532883 -9.56606018 3.4989389 -8.63015747 3.49235535 C-7.78943695 3.47256119 -6.94871643 3.45276703 -6.08251953 3.43237305 C-5.34083527 3.42126999 -4.599151 3.41016693 -3.83499146 3.39872742 C-1.58638164 3.13280747 -1.58638164 3.13280747 0 0 Z " fill="#E6F3F4" transform="translate(142,38)"/>
<path d="M0 0 C0.33 0 0.66 0 1 0 C1 47.85 1 95.7 1 145 C5.62 145 10.24 145 15 145 C15.33 143.35 15.66 141.7 16 140 C17.875 139.375 17.875 139.375 20 139 C22 141 22 141 22 145 C27.3167463 144.95536996 32.63235821 144.88505105 37.94848633 144.79248047 C39.75112808 144.76452257 41.55388668 144.74318492 43.35668945 144.72900391 C57.15212233 144.61407389 69.88339814 144.18327979 81 135 C84 133 84 133 86.5 131.8125 C89.79886766 129.42082094 90.63665612 126.67818818 92 123 C92.99724309 120.79515785 94.01564397 118.60086277 95.03515625 116.40625 C97.94815195 109.141451 98.33240027 102.72719193 98.4140625 94.94140625 C98.43342865 93.79711655 98.4527948 92.65282684 98.4727478 91.47386169 C98.5322908 87.83681578 98.57882812 84.19973779 98.625 80.5625 C98.663203 78.08917928 98.70225608 75.61587154 98.7421875 73.14257812 C98.83797156 67.09516767 98.9230925 61.04767839 99 55 C97.515 54.505 97.515 54.505 96 54 C96.875 49.125 96.875 49.125 98 48 C98.07641156 45.29350271 98.09064643 42.61226984 98.0625 39.90625 C98.05871338 39.0855603 98.05492676 38.26487061 98.05102539 37.41931152 C98.03467561 33.8992708 98.00682923 30.37934499 97.97949219 26.859375 C97.96123382 24.29167229 97.94923795 21.72398956 97.9375 19.15625 C97.92505249 17.98382751 97.92505249 17.98382751 97.91235352 16.78771973 C97.88873814 11.37663187 98.39399692 6.45402775 99 1 C78.21 1 57.42 1 36 1 C36 0.67 36 0.34 36 0 C62.07 0 88.14 0 115 0 C115.16121214 37.24448173 115.16121214 37.24448173 115.1953125 52.81835938 C115.21907291 63.58365475 115.24704707 74.34882516 115.30175781 85.11401367 C115.34157955 92.95328477 115.36742183 100.79245477 115.37635398 108.6318242 C115.38157669 112.78421586 115.39388287 116.93631823 115.42292023 121.08861732 C115.45001591 124.99480689 115.45845701 128.90058726 115.45243073 132.80686188 C115.4535336 134.24241291 115.46152262 135.67797726 115.4768219 137.11344719 C115.49665406 139.06973818 115.48957041 141.02624742 115.48101807 142.98262024 C115.48470524 144.0786321 115.48839241 145.17464396 115.49219131 146.30386829 C115 149 115 149 113.24940777 150.85143566 C110.778124 152.11329153 109.28755879 152.38107423 106.52845764 152.39440918 C105.63828445 152.40575897 104.74811127 152.41710876 103.83096313 152.42880249 C102.86202118 152.42587189 101.89307922 152.42294128 100.89477539 152.41992188 C99.86834427 152.42839142 98.84191315 152.43686096 97.78437805 152.44558716 C94.38867836 152.46900163 90.99343059 152.46997825 87.59765625 152.46875 C85.23880328 152.47584874 82.87995205 152.48354731 80.52110291 152.49182129 C75.5756246 152.50527626 70.63030596 152.50683018 65.68481445 152.50097656 C59.34472504 152.4950789 53.00540097 152.52567105 46.66545963 152.56609344 C41.79357265 152.5919319 36.92187091 152.59485133 32.04992485 152.59120178 C29.71231601 152.59289656 27.37469894 152.60257322 25.03715706 152.62034607 C21.76912199 152.64245917 18.50264846 152.63287163 15.23461914 152.61523438 C14.26770142 152.62849762 13.30078369 152.64176086 12.30456543 152.65542603 C8.17852716 152.60363621 5.57262704 152.30614363 1.89581299 150.34040833 C-1.22359221 144.84403966 -0.65154029 139.1180465 -0.56762695 132.93823242 C-0.56621595 131.48923797 -0.56700948 130.04023994 -0.56983948 128.59124756 C-0.57127304 124.66366882 -0.54189383 120.73685485 -0.50696969 116.80945373 C-0.47569579 112.7028681 -0.47277465 108.59626459 -0.46684265 104.48957825 C-0.45130719 96.715771 -0.41028294 88.94231566 -0.3600952 81.16866332 C-0.30419234 72.3174959 -0.2767129 63.46631161 -0.25161803 54.61501157 C-0.19936667 36.40980826 -0.11143034 18.20493243 0 0 Z " fill="#445656" transform="translate(70,97)"/>
<path d="M0 0 C25.08 0 50.16 0 76 0 C76 9.24 76 18.48 76 28 C72.04 28.33 68.08 28.66 64 29 C63.34 30.32 62.68 31.64 62 33 C62 32.34 62 31.68 62 31 C58.7 31 55.4 31 52 31 C51.505 30.01 51.505 30.01 51 29 C34.17 28.67 17.34 28.34 0 28 C0 18.76 0 9.52 0 0 Z " fill="#3847AF" transform="translate(90,7)"/>
<path d="M0 0 C2.64 0 5.28 0 8 0 C10.5625 2.625 10.5625 2.625 12 6 C11.8125 8.9375 11.8125 8.9375 11 12 C10.66140041 14.33257494 10.3267961 16.66574212 10 19 C12.92438754 18.35980881 12.92438754 18.35980881 16 17 C16.4125 16.13375 16.825 15.2675 17.25 14.375 C19 12 19 12 21.26171875 11.46484375 C24.0257079 11.30747794 26.30564699 11.35086545 29 12 C31.3125 14.9375 31.3125 14.9375 33 18 C35.62766389 18.96219702 35.62766389 18.96219702 38 19 C37.29723292 13.92947304 37.29723292 13.92947304 36.1875 8.9375 C36 6 36 6 37.4375 2.625 C40.09816683 -0.10056115 40.4533788 -0.43938244 44 -0.625 C46.71259644 -0.38208092 48.06684355 0.03676395 50.5 1.375 C52.76133858 5.33234251 52.86167017 9.54415604 52 14 C51.01 14.66 50.02 15.32 49 16 C48.26393501 19.56769552 48.26393501 19.56769552 48 23 C40.14448094 24.96360021 32.6360509 25.30409414 24.5625 25.25 C23.41201172 25.25773437 22.26152344 25.26546875 21.07617188 25.2734375 C19.93857422 25.27085937 18.80097656 25.26828125 17.62890625 25.265625 C16.61900635 25.26336914 15.60910645 25.26111328 14.56860352 25.25878906 C9.66725095 24.9033513 4.83495667 23.87908303 0 23 C0 15.41 0 7.82 0 0 Z " fill="#829BA9" transform="translate(104,201)"/>
<path d="M0 0 C0.67902374 -0.00191345 1.35804749 -0.0038269 2.05764771 -0.00579834 C3.48456191 -0.00715022 4.91148883 -0.00352397 6.33837891 0.00488281 C8.49540553 0.01556357 10.65159314 0.00497118 12.80859375 -0.0078125 C14.20573097 -0.00649008 15.60286767 -0.00392598 17 0 C18.87341064 0.00338379 18.87341064 0.00338379 20.78466797 0.00683594 C24.6328125 0.265625 24.6328125 0.265625 33.6328125 2.265625 C33.6328125 9.855625 33.6328125 17.445625 33.6328125 25.265625 C30.9928125 25.265625 28.3528125 25.265625 25.6328125 25.265625 C22.96751688 22.4004322 21.79904328 20.45694556 21.2578125 16.578125 C21.6328125 14.265625 21.6328125 14.265625 23.6328125 11.265625 C23.3206361 8.61930213 23.3206361 8.61930213 22.6328125 6.265625 C20.75400378 6.31330903 20.75400378 6.31330903 18.6328125 7.265625 C18.0965625 8.27625 17.5603125 9.286875 17.0078125 10.328125 C14.6328125 13.265625 14.6328125 13.265625 12.33203125 13.90625 C9.51692873 14.08975298 7.35423002 14.02621503 4.6328125 13.265625 C2.22140395 11.10016942 1.19396196 9.17977066 -0.3671875 6.265625 C-1.6871875 6.595625 -3.0071875 6.925625 -4.3671875 7.265625 C-3.68955437 11.53809658 -3.68955437 11.53809658 -2.5546875 15.703125 C-2.26174401 19.70668609 -4.21602669 21.94110375 -6.3671875 25.265625 C-9.0071875 25.265625 -11.6471875 25.265625 -14.3671875 25.265625 C-14.3671875 17.675625 -14.3671875 10.085625 -14.3671875 2.265625 C-8.8247444 0.68206983 -5.52498676 0.00999739 0 0 Z " fill="#829BAA" transform="translate(118.3671875,119.734375)"/>
<path d="M0 0 C19.8 0 39.6 0 60 0 C59 7 59 7 57 9 C56.34 8.01 55.68 7.02 55 6 C52.41619823 5.74969023 52.41619823 5.74969023 50 6 C49.96261719 6.84304687 49.92523438 7.68609375 49.88671875 8.5546875 C49.82097656 9.65039062 49.75523437 10.74609375 49.6875 11.875 C49.60048828 13.51082031 49.60048828 13.51082031 49.51171875 15.1796875 C49.34285156 16.11039063 49.17398438 17.04109375 49 18 C46 20 46 20 42 20 C41.67 15.71 41.34 11.42 41 7 C38.525 6.505 38.525 6.505 36 6 C34.12175109 7.87824891 34.60897603 11.03935276 34.4375 13.5625 C34.35371094 14.76003906 34.26992187 15.95757812 34.18359375 17.19140625 C34.09271484 18.58166016 34.09271484 18.58166016 34 20 C31.69 20 29.38 20 27 20 C26.67 15.38 26.34 10.76 26 6 C24.35 6 22.7 6 21 6 C20.67 10.62 20.34 15.24 20 20 C17.36 20 14.72 20 12 20 C11.67 15.38 11.34 10.76 11 6 C9.35 6 7.7 6 6 6 C5.67 10.62 5.34 15.24 5 20 C3.35 20 1.7 20 0 20 C0 13.4 0 6.8 0 0 Z " fill="#5463C5" transform="translate(90,8)"/>
<path d="M0 0 C0.91442368 -0.00637985 1.82884735 -0.0127597 2.77098083 -0.01933289 C3.76573929 -0.02044571 4.76049774 -0.02155853 5.78540039 -0.02270508 C6.80026016 -0.02603348 7.81511993 -0.02936188 8.86073303 -0.03279114 C11.01196844 -0.03786483 13.16321174 -0.04019933 15.31445312 -0.04003906 C18.615447 -0.04222467 21.91610639 -0.0603734 25.21704102 -0.0793457 C27.30232632 -0.08227964 29.38761323 -0.08426443 31.47290039 -0.08520508 C32.46563461 -0.09239059 33.45836884 -0.09957611 34.48118591 -0.10697937 C35.39876175 -0.10390274 36.31633759 -0.10082611 37.26171875 -0.09765625 C38.07144638 -0.09908127 38.88117401 -0.10050629 39.71543884 -0.10197449 C41.69555664 0.14526367 41.69555664 0.14526367 43.69555664 2.14526367 C43.15984235 5.68097796 43.15984235 5.68097796 41.69555664 7.14526367 C40.26364803 7.24858294 38.82672861 7.28376253 37.39111328 7.29052734 C36.01947777 7.30009712 36.01947777 7.30009712 34.62013245 7.30986023 C33.12799477 7.31152946 33.12799477 7.31152946 31.60571289 7.31323242 C30.59085312 7.31656082 29.57599335 7.31988922 28.53038025 7.32331848 C26.37914484 7.32839217 24.22790154 7.33072667 22.07666016 7.33056641 C18.77566629 7.33275201 15.47500689 7.35090074 12.17407227 7.36987305 C10.08878696 7.37280698 8.00350005 7.37479178 5.91821289 7.37573242 C4.92547867 7.38291794 3.93274445 7.39010345 2.90992737 7.39750671 C1.99235153 7.39443008 1.0747757 7.39135345 0.12939453 7.38818359 C-0.6803331 7.38960861 -1.49006073 7.39103363 -2.32432556 7.39250183 C-4.30444336 7.14526367 -4.30444336 7.14526367 -6.30444336 5.14526367 C-5.59103116 0.43674316 -4.56879865 0.0215288 0 0 Z " fill="#000000" transform="translate(109.304443359375,49.854736328125)"/>
<path d="M0 0 C2.54501529 -0.00359465 5.04273778 0.09453667 7.578125 0.30859375 C11.59601306 6.39630292 11.59601306 6.39630292 11.515625 10.49609375 C10.53958546 13.42421238 9.68263028 15.06785933 7.578125 17.30859375 C4.16740762 18.18547268 1.0117854 18.04918717 -2.421875 17.30859375 C-5.109375 14.68359375 -5.109375 14.68359375 -6.421875 11.30859375 C-6.32465609 6.54486696 -5.46417834 0.69624208 0 0 Z " fill="#819AA8" transform="translate(125.421875,163.69140625)"/>
<path d="M0 0 C2.54501529 -0.00359465 5.04273778 0.09453667 7.578125 0.30859375 C11.59691414 6.5194497 11.59691414 6.5194497 11.515625 9.93359375 C11.20625 10.71734375 10.896875 11.50109375 10.578125 12.30859375 C10.26875 13.23671875 9.959375 14.16484375 9.640625 15.12109375 C7.1415804 17.7715956 6.1949122 17.77656425 2.640625 17.99609375 C-1.36824911 17.7909613 -2.11654023 17.60682772 -5.109375 14.68359375 C-7.00510022 9.80887177 -6.051843 7.24049563 -4.484375 2.43359375 C-2.421875 0.30859375 -2.421875 0.30859375 0 0 Z " fill="#829BAA" transform="translate(125.421875,139.69140625)"/>
<path d="M0 0 C6.97979581 -0.0629756 6.97979581 -0.0629756 10.34765625 3.2265625 C11.83854812 7.06028445 11.92551524 8.72112826 10.66015625 12.6015625 C9.41015625 14.7421875 9.41015625 14.7421875 7.66015625 16.6015625 C4.24943887 17.47844143 1.09381665 17.34215592 -2.33984375 16.6015625 C-5.02734375 13.9765625 -5.02734375 13.9765625 -6.33984375 10.6015625 C-6.24460634 5.83969179 -5.02304618 1.29140085 0 0 Z " fill="#839DAB" transform="translate(125.33984375,188.3984375)"/>
<path d="M0 0 C2.64 0 5.28 0 8 0 C8 5.61 8 11.22 8 17 C5.36 17 2.72 17 0 17 C-2.5625 14.375 -2.5625 14.375 -4 11 C-3.91237832 6.70653751 -2.91495087 3.19704289 0 0 Z " fill="#829BA9" transform="translate(144,152)"/>
<path d="M0 0 C2.64 0 5.28 0 8 0 C12.01878914 6.21085595 12.01878914 6.21085595 11.9375 9.625 C11.628125 10.40875 11.31875 11.1925 11 12 C10.649375 12.928125 10.29875 13.85625 9.9375 14.8125 C9.298125 15.534375 8.65875 16.25625 8 17 C5.36 17 2.72 17 0 17 C0 11.39 0 5.78 0 0 Z " fill="#829BAA" transform="translate(104,152)"/>
<path d="M0 0 C0 5.28 0 10.56 0 16 C-2.64 16 -5.28 16 -8 16 C-10.5625 13.375 -10.5625 13.375 -12 10 C-11.93434527 6.71726372 -11.2683311 4.59979893 -9.9375 1.625 C-8 0 -8 0 0 0 Z " fill="#849EAC" transform="translate(152,177)"/>
<path d="M0 0 C2.64 0 5.28 0 8 0 C10.5625 2.625 10.5625 2.625 12 6 C11.93434527 9.28273628 11.2683311 11.40020107 9.9375 14.375 C8 16 8 16 0 16 C0 10.72 0 5.44 0 0 Z " fill="#849EAD" transform="translate(104,177)"/>
<path d="M0 0 C4.55555556 0.55555556 4.55555556 0.55555556 6 2 C6.12514928 3.97619447 6.1757276 5.95738173 6.1875 7.9375 C6.20167969 9.01902344 6.21585938 10.10054687 6.23046875 11.21484375 C6 14 6 14 4 16 C-0.55555556 15.44444444 -0.55555556 15.44444444 -2 14 C-2.12514928 12.02380553 -2.1757276 10.04261827 -2.1875 8.0625 C-2.20167969 6.98097656 -2.21585937 5.89945313 -2.23046875 4.78515625 C-2 2 -2 2 0 0 Z " fill="#04050B" transform="translate(126,13)"/>
<path d="M0 0 C2.5 0.125 2.5 0.125 3.5 1.125 C3.59909302 3.45660055 3.62970504 5.79129942 3.625 8.125 C3.62757813 9.40375 3.63015625 10.6825 3.6328125 12 C3.5 15.125 3.5 15.125 2.5 16.125 C0 16.25 0 16.25 -2.5 16.125 C-3.5 15.125 -3.5 15.125 -3.6328125 12 C-3.63023437 10.72125 -3.62765625 9.4425 -3.625 8.125 C-3.62757813 6.84625 -3.63015625 5.5675 -3.6328125 4.25 C-3.45953902 0.17297695 -3.45953902 0.17297695 0 0 Z " fill="#010103" transform="translate(157.5,12.875)"/>
<path d="M0 0 C2.5 0.125 2.5 0.125 3.5 1.125 C3.59909302 3.45660055 3.62970504 5.79129942 3.625 8.125 C3.62757813 9.40375 3.63015625 10.6825 3.6328125 12 C3.5 15.125 3.5 15.125 2.5 16.125 C0 16.25 0 16.25 -2.5 16.125 C-3.5 15.125 -3.5 15.125 -3.6328125 12 C-3.63023437 10.72125 -3.62765625 9.4425 -3.625 8.125 C-3.62757813 6.84625 -3.63015625 5.5675 -3.6328125 4.25 C-3.45953902 0.17297695 -3.45953902 0.17297695 0 0 Z " fill="#010103" transform="translate(142.5,12.875)"/>
<path d="M0 0 C2.5 0.125 2.5 0.125 3.5 1.125 C3.59909302 3.45660055 3.62970504 5.79129942 3.625 8.125 C3.62757812 9.40375 3.63015625 10.6825 3.6328125 12 C3.5 15.125 3.5 15.125 2.5 16.125 C0 16.25 0 16.25 -2.5 16.125 C-3.5 15.125 -3.5 15.125 -3.6328125 12 C-3.63023438 10.72125 -3.62765625 9.4425 -3.625 8.125 C-3.62757812 6.84625 -3.63015625 5.5675 -3.6328125 4.25 C-3.45953902 0.17297695 -3.45953902 0.17297695 0 0 Z " fill="#010103" transform="translate(113.5,12.875)"/>
<path d="M0 0 C2.5 0.125 2.5 0.125 3.5 1.125 C3.59909302 3.45660055 3.62970504 5.79129942 3.625 8.125 C3.62757812 9.40375 3.63015625 10.6825 3.6328125 12 C3.5 15.125 3.5 15.125 2.5 16.125 C0.83382885 16.16563832 -0.83388095 16.167721 -2.5 16.125 C-3.93316898 13.25866205 -3.63200361 10.75264499 -3.625 7.5625 C-3.62757812 6.38558594 -3.63015625 5.20867188 -3.6328125 3.99609375 C-3.45595254 0.17279763 -3.45595254 0.17279763 0 0 Z " fill="#010102" transform="translate(98.5,12.875)"/>
<path d="M0 0 C1.67542976 0.28604898 3.34385343 0.61781233 5 1 C5.6875 2.8125 5.6875 2.8125 6 5 C4.5625 6.75 4.5625 6.75 3 8 C0.525 7.01 0.525 7.01 -2 6 C-1.125 1.125 -1.125 1.125 0 0 Z " fill="#090B0B" transform="translate(154,236)"/>
<path d="M0 0 C1.67542976 0.28604898 3.34385343 0.61781233 5 1 C5.33 2.65 5.66 4.3 6 6 C4.35 6.66 2.7 7.32 1 8 C-0.5625 6.75 -0.5625 6.75 -2 5 C-1.74853421 2.86254078 -1.54074221 1.54074221 0 0 Z " fill="#080A0A" transform="translate(173,225)"/>
<path d="M0 0 C2.125 0.375 2.125 0.375 4 1 C4.625 3.375 4.625 3.375 5 6 C4.34 6.66 3.68 7.32 3 8 C0.875 7.625 0.875 7.625 -1 7 C-1.625 4.625 -1.625 4.625 -2 2 C-1.34 1.34 -0.68 0.68 0 0 Z " fill="#050607" transform="translate(87,236)"/>
<path d="M0 0 C2.125 0.375 2.125 0.375 4 1 C4.625 3.375 4.625 3.375 5 6 C4.34 6.66 3.68 7.32 3 8 C0.875 7.625 0.875 7.625 -1 7 C-1.625 4.625 -1.625 4.625 -2 2 C-1.34 1.34 -0.68 0.68 0 0 Z " fill="#050606" transform="translate(175,166)"/>
<path d="M0 0 C2.125 0.375 2.125 0.375 4 1 C4.625 3.375 4.625 3.375 5 6 C4.34 6.66 3.68 7.32 3 8 C0.875 7.625 0.875 7.625 -1 7 C-1.625 4.625 -1.625 4.625 -2 2 C-1.34 1.34 -0.68 0.68 0 0 Z " fill="#060809" transform="translate(78,125)"/>
<path d="M0 0 C2.125 0.375 2.125 0.375 4 1 C4.625 3.375 4.625 3.375 5 6 C4.34 6.66 3.68 7.32 3 8 C0.875 7.625 0.875 7.625 -1 7 C-1.625 4.625 -1.625 4.625 -2 2 C-1.34 1.34 -0.68 0.68 0 0 Z " fill="#060708" transform="translate(84,107)"/>
<path d="M0 0 C2.625 0.375 2.625 0.375 5 1 C5.042721 2.66611905 5.04063832 4.33382885 5 6 C4 7 4 7 1.4375 7.0625 C0.2309375 7.0315625 0.2309375 7.0315625 -1 7 C-1.625 4.625 -1.625 4.625 -2 2 C-1.34 1.34 -0.68 0.68 0 0 Z " fill="#060708" transform="translate(80,222)"/>
<path d="M0 0 C2.625 0.375 2.625 0.375 5 1 C5.042721 2.66611905 5.04063832 4.33382885 5 6 C4 7 4 7 1.4375 7.0625 C0.2309375 7.0315625 0.2309375 7.0315625 -1 7 C-1.625 4.625 -1.625 4.625 -2 2 C-1.34 1.34 -0.68 0.68 0 0 Z " fill="#050707" transform="translate(168,145)"/>
<path d="M0 0 C1.67542976 0.28604898 3.34385343 0.61781233 5 1 C5.38218767 2.65614657 5.71395102 4.32457024 6 6 C5 7 5 7 2.5 7.125 C0 7 0 7 -1 6 C-1.125 3.5 -1.125 3.5 -1 1 C-0.67 0.67 -0.34 0.34 0 0 Z " fill="#040505" transform="translate(169,106)"/>
</svg>
